<svg id="Capa_1" enable-background="new 0 0 512 512" height="512" viewBox="0 0 512 512" width="512" xmlns="http://www.w3.org/2000/svg"><g><path d="m512 210.063v-210.063h-210.062v210.063h97.078v271.937h-144.449c7.256-9.266 12.478-20.196 14.952-32.128h85.245v-82.402c0-48.137-39.163-87.3-87.3-87.3h-35.319l-66.096-98.542h-166.049v30h150.048l45.974 68.542h-196.022v30h267.464c26.405 0 48.684 17.959 55.294 42.3h-37.37v30h39.375v37.402h-54.933c-6.678-36.261-38.504-63.826-76.667-63.826s-69.989 27.565-76.667 63.826h-116.496v30h116.81c2.473 11.932 7.696 22.862 14.952 32.128h-131.762v30h512v-30h-82.984v-271.937zm-366.813 223.96c0-26.455 21.522-47.978 47.978-47.978 26.455 0 47.977 21.522 47.977 47.978 0 26.455-21.522 47.977-47.977 47.977-26.456 0-47.978-21.522-47.978-47.977zm186.751-404.023h150.062v150.063h-150.062z"/><path d="m406.604 52.884h-36.97l.048 102.116h30v-27.661s5.208-.019 6.922-.019c20.762 0 37.653-16.696 37.653-37.218s-16.892-37.218-37.653-37.218zm0 44.436c-1.727 0-6.848.019-6.848.019l-.032-14.455h6.88c4.077 0 7.653 3.373 7.653 7.218s-3.576 7.218-7.653 7.218z"/></g></svg>