<svg id="Capa_1" enable-background="new 0 0 512 512" height="512" viewBox="0 0 512 512" width="512" xmlns="http://www.w3.org/2000/svg"><g><circle cx="256" cy="339.5" r="7.5"/><circle cx="256" cy="309.5" r="7.5"/><circle cx="256" cy="249.5" r="7.5"/><path d="m120.239 259.453 19.278 168.179c1.593 13.892 13.338 24.368 27.321 24.368h178.323c13.983 0 25.729-10.476 27.321-24.368l19.278-168.178c1.755-15.309 8.702-29.761 19.561-40.694 1.396-1.405 2.179-3.305 2.179-5.285v-175.975c0-4.142-3.357-7.5-7.5-7.5h-23.255c-3.484-17.096-18.635-30-36.745-30h-180c-18.11 0-33.261 12.904-36.745 30h-23.255c-4.142 0-7.5 3.358-7.5 7.5v175.975c0 1.98.783 3.88 2.179 5.285 10.859 10.932 17.805 25.385 19.56 40.693zm224.922 177.547h-178.323c-6.356 0-11.695-4.762-12.419-11.076l-2.758-24.06c5.579 3.268 12.057 5.136 18.938 5.136h170.801c6.881 0 13.359-1.868 18.938-5.136l-2.758 24.06c-.724 6.314-6.062 11.076-12.419 11.076zm-201.661-392h225v45h-225zm22.5-30h180c9.777 0 18.114 6.271 21.21 15h-222.42c3.096-8.729 11.432-15 21.21-15zm-52.5 30h15v52.5c0 4.142 3.358 7.5 7.5 7.5h232.5v94.782c-11.786 16.033-19.187 34.836-21.446 54.547l-12.343 107.671h-157.422l-12.342-107.671c-2.259-19.709-9.66-38.512-21.446-54.547v-72.282c0-4.142-3.358-7.5-7.5-7.5s-7.5 3.358-7.5 7.5v74.788c0 1.656.548 3.266 1.559 4.577 11.028 14.314 17.939 31.318 19.985 49.171l13.104 114.317c.434 3.787 3.64 6.646 7.451 6.646h170.8c3.812 0 7.018-2.859 7.451-6.646l13.104-114.317c2.047-17.855 8.958-34.858 19.985-49.172 1.011-1.312 1.559-2.921 1.559-4.577v-157.287h15v165.468c-11.974 13.011-19.624 29.678-21.642 47.277l-13.104 114.317c-1.302 11.367-10.912 19.938-22.353 19.938h-170.801c-11.44 0-21.051-8.571-22.354-19.938 0 0-13.104-114.317-13.104-114.317-2.017-17.598-9.667-34.266-21.641-47.277z"/><path d="m489.5 467h-467c-12.407 0-22.5 10.093-22.5 22.5s10.093 22.5 22.5 22.5h467c12.406 0 22.5-10.093 22.5-22.5s-10.094-22.5-22.5-22.5zm0 30h-467c-4.136 0-7.5-3.364-7.5-7.5s3.364-7.5 7.5-7.5h467c4.136 0 7.5 3.364 7.5 7.5s-3.364 7.5-7.5 7.5z"/></g></svg>