<svg id="Capa_1" enable-background="new 0 0 512.159 512.159" height="512" viewBox="0 0 512.159 512.159" width="512" xmlns="http://www.w3.org/2000/svg"><g><g><path d="m236.915 130.272c-6.444-69.296-62.984-123.055-128.03-117.379-72.189 6.321-114.096 72.785-108.364 138.846 0 0 10.83 68.237 10.839 68.294l29.535 186.185c9.029 56.92 56.398 97.713 109.178 93.104 52.956-4.634 92.34-53.231 91.351-110.648-.027-1.543-4.393-257.152-4.509-258.402zm-126.721-102.436c42.867-3.752 82.293 22.716 100.976 63.275-4.758-1.539-9.59-2.922-14.488-4.151-17.861-31.172-50.163-51.265-85.528-48.166-39.548 3.462-67.153 29.803-78.958 63.582-4.632 2.187-9.149 4.527-13.547 7.011 10.64-42.624 43.38-77.333 91.545-81.551zm65.508 54.869c-41.23-6.44-84.72-2.468-123.527 11.415 12.153-22.463 32.353-37.938 60.286-40.382 24.835-2.175 47.751 9.692 63.241 28.967zm-150.274 130.273c-10.268-64.729-11.456-66.723-10-84.1 55.881-36.685 138.035-44.592 202.45-19.484 5.281 18.893 3.938 11.782 6.304 149.247-11.016.964-177.771 15.553-188.89 16.525zm175.001 176.402c.621 36.047-23.068 66.398-53.933 69.099-30.471 2.695-59.347-22.369-65.108-58.683l-17.775-112.051c4.525-.396 128.4-11.233 134.863-11.799zm-51.665 95c-44.408 3.9-85.277-31.479-93.055-80.511l-18.06-113.852 10.986-.961 17.939 113.09c6.923 43.64 42.419 74.687 81.233 71.276 38.674-3.384 68.376-40.413 67.621-84.3l-1.971-114.486 10.985-.961 1.984 115.258c.854 49.637-33.258 91.562-77.662 95.447z"/><path d="m405.801 13.131c-59.641-5.221-108.285 34.202-125.058 88.44-4.198 13.571-5.948 27.995-5.787 30.599-.12 6.952-4.295 249.522-4.416 256.505-.992 57.613 38.57 106.029 91.352 110.648 52.056 4.543 100.025-35.407 109.177-93.104.04-.253 40.368-254.399 40.387-254.654 6.912-65.002-37.797-132.497-105.655-138.434zm-1.309 14.943c43.352 3.792 77.863 37.408 88.823 81.313-4.398-2.484-8.914-4.824-13.547-7.011-12.452-35.63-42.052-60.354-76.236-63.344-39.032-3.418-70.314 16.624-88.25 47.926-4.899 1.23-9.732 2.613-14.49 4.153 18.214-39.548 56.19-67.195 103.7-63.037zm55.297 66.046c-37.931-13.57-81.452-17.99-123.525-11.417 16.507-20.543 38.764-31.108 65.961-28.727 23.917 2.092 45.211 17.311 57.564 40.144zm-3.534 309.749c-7.778 49.031-48.654 84.397-93.056 80.511-44.403-3.885-78.516-45.811-77.661-95.447l1.984-115.258 10.985.961-1.971 114.486c-.755 43.887 28.948 80.916 67.619 84.3 38.689 3.396 74.288-27.482 81.235-71.276l17.939-113.09 10.986.961zm-144.72-14.489 1.953-113.434c5.896.516 128.922 11.279 134.863 11.799l-17.774 112.051c-5.852 36.887-35.146 61.326-65.11 58.683-30.863-2.7-54.553-33.052-53.932-69.099zm165.136-114.215c-11.133-.974-177.876-15.562-188.89-16.525 2.307-134.024.981-130.198 6.304-149.248 64.415-25.107 146.568-17.202 202.45 19.485 1.496 17.832 1.144 13.859-19.864 146.288z"/></g></g></svg>