<svg id="Capa_1" enable-background="new 0 0 512 512" height="512" viewBox="0 0 512 512" width="512" xmlns="http://www.w3.org/2000/svg"><g><path d="m455.981 185.714h-18.219c-4.123 0-7.465 3.342-7.465 7.465s3.342 7.465 7.465 7.465h18.219c13.715 0 24.873 11.158 24.873 24.873v68.199c0 1.873-.558 3.661-1.621 5.185l-31.355 45.102c-1.694 2.441-4.484 3.898-7.463 3.898h-34.163c.978-4.939 1.786-9.918 2.447-14.92h24.769c2.445 0 4.735-1.197 6.13-3.206l24.992-35.971c.869-1.25 1.335-2.737 1.335-4.259v-64.029c0-5.482-4.46-9.943-9.943-9.943h-45.224v-56.011c0-13.349-10.86-24.209-24.209-24.209h-278.62c-13.349 0-24.209 10.86-24.209 24.209v106.841c0 4.123 3.342 7.465 7.465 7.465s7.465-3.342 7.465-7.465v-106.841c0-5.117 4.163-9.28 9.28-9.28h71.357v52.079h-16.567c-11.901 0-21.854 9.3-22.659 21.174l-3.504 51.638c-.991 11.64 9.104 24.4 22.659 24.248h55.071c11.681.201 23.728-10.734 22.659-24.249l-3.504-51.638c-.806-11.873-10.759-21.174-22.659-21.174h-16.567v-52.079h192.333c5.117 0 9.279 4.163 9.279 9.28v142.419c.357 18.943-3.607 41.565-7.72 60.573-6.282 31.47-34.134 54.311-66.225 54.311h-149.288c-32.091 0-59.942-22.841-66.225-54.311-4.11-19.161-7.963-40.386-7.721-60.573 0-4.123-3.342-7.465-7.465-7.465s-7.465 3.342-7.465 7.465c-.354 19.878 3.671 43.535 8.01 63.495 5.446 27.282 24.176 49.24 48.601 59.689l-5.034 31.473h-100.912c-11.365-.315-21.413 12.186-17.18 24.229l6.644 18.948c2.553 7.29 9.458 12.186 17.18 12.186h412.421c7.721 0 14.625-4.896 17.18-12.182l6.644-18.95c4.057-10.621-4.415-24.24-17.18-24.229h-100.91l-5.033-31.474c24.726-10.414 44.508-34.183 49.126-62.335h37.138c7.87 0 15.245-3.856 19.725-10.31l31.345-45.088c2.812-4.031 4.299-8.774 4.299-13.717v-68.199c.001-21.947-17.854-39.802-39.802-39.802zm-237.436 38.831 3.504 51.637c.157 3.336-2.242 8.004-7.764 8.309h-55.071c-3.339-.07-7.834-2.779-7.764-8.308l3.504-51.638c.276-4.068 3.686-7.255 7.764-7.255h48.063c4.078 0 7.488 3.187 7.764 7.255zm244.22 248.405c.366.516.907 1.589.419 2.979l-6.644 18.949c-.46 1.311-1.702 2.192-3.091 2.192h-412.421c-1.389 0-2.632-.881-3.091-2.192l-6.644-18.949c-.172-1.475-.695-3.354 3.091-4.36h425.709c1.472 0 2.306.865 2.672 1.381zm-118.701-16.312h-193.649l4.289-26.817c5.784 1.293 11.774 1.973 17.891 1.973h149.287c6.118 0 12.109-.68 17.894-1.974zm106.931-226.135v56.703l-21.43 30.845h-19.369c.365-5.353.562-10.714.562-16.069v-71.478h40.237z"/><path d="m186.324 103.093c4.123 0 7.465-3.342 7.465-7.465 0-10.215 4.362-19.984 11.967-26.802 10.76-9.646 16.931-23.467 16.931-37.919v-23.442c0-4.123-3.342-7.465-7.465-7.465s-7.465 3.342-7.465 7.465v23.443c0 10.215-4.362 19.984-11.968 26.802-10.759 9.647-16.931 23.468-16.931 37.919.001 4.122 3.343 7.464 7.466 7.464z"/><path d="m247.716 118.07c4.123 0 7.465-3.342 7.465-7.465v-16.235c0-4.123-3.342-7.465-7.465-7.465s-7.465 3.342-7.465 7.465v16.236c0 4.122 3.342 7.464 7.465 7.464z"/><path d="m247.442 66.543c3.002.847 7.267-.184 9.33-4.94 1.922-6.247 5.51-11.856 10.376-16.22 10.76-9.646 16.931-23.467 16.931-37.919 0-4.123-3.342-7.465-7.465-7.465s-7.465 3.342-7.465 7.465c0 10.215-4.362 19.984-11.968 26.803-6.885 6.173-11.961 14.108-14.68 22.946-1.212 3.941 1 8.118 4.941 9.33z"/><path d="m308.153 112.062c4.123 0 7.465-3.342 7.465-7.465v-59.312c0-4.123-3.342-7.465-7.465-7.465s-7.465 3.342-7.465 7.465v59.312c.001 4.123 3.343 7.465 7.465 7.465z"/></g></svg>