<svg id="Capa_1" enable-background="new 0 0 510 510" height="512" viewBox="0 0 510 510" width="512" xmlns="http://www.w3.org/2000/svg"><path d="m505.728 4.883c-5.79-5.925-15.287-6.034-21.211-.245l-27.628 26.996h-403.778l-27.628-26.996c-5.925-5.792-15.422-5.68-21.211.245-5.79 5.926-5.68 15.423.246 21.212l27.482 26.854v403.559l-27.081 27.625c-5.799 5.916-5.705 15.413.211 21.213 5.908 5.791 15.405 5.713 21.212-.211l26.959-27.501c246.777 0 236.332.894 241.385-2.136 2.567-1.537-9.395 10.058 178.92-178.257 2.813-2.813 4.394-6.628 4.394-10.606v-233.686l27.483-26.854c5.925-5.789 6.036-15.286.245-21.212zm-57.728 266.801c-1.154-.076 3.801-.05-58-.05v-74h58zm-88-74.05v74h-73c-8.284 0-15 6.716-15 15v73h-114v-162zm-202-30v-106h202v106zm-30 192h-66v-162h66zm-66 30h66v58h-66zm96 0h114v58h-114zm144-88h124.787l-124.787 124.787zm88-134v-106h58v106zm-262-106v106h-66v-106z"/></svg>