<svg id="Capa_1" enable-background="new 0 0 512 512" height="512" viewBox="0 0 512 512" width="512" xmlns="http://www.w3.org/2000/svg"><g><path d="m460.511 40.968c-18.078 0-34.922 9.672-44.157 25h-17.827c-12.436-15.248-31.365-25.001-52.529-25.001h-12.238c-4.143 0-7.5 3.357-7.5 7.5s3.357 7.5 7.5 7.5h12.239c29.093 0 52.761 23.668 52.761 52.761.006 68.96.016 153.379.026 251.945h-165.026v-251.945c0-21.108-9.57-40.049-25.271-52.761h90.271c4.143 0 7.5-3.357 7.5-7.5s-3.357-7.5-7.5-7.5h-132.442c-20.67-.089-39.629 9.078-52.554 25.001h-18.118c-9.235-15.328-26.078-25-44.157-25-28.391 0-51.489 23.098-51.489 51.488 0 28.392 23.098 51.489 51.489 51.489 18.078 0 34.922-9.672 44.157-25h2.594v203.408c0 8.252 6.713 14.966 14.965 14.966h80.555v118.749c0 8.252 6.713 14.965 14.965 14.965h190.07c8.252 0 14.965-6.713 14.965-14.965v-337.122h2.594c9.235 15.328 26.078 25 44.157 25 28.392 0 51.489-23.098 51.489-51.489s-23.098-51.489-51.489-51.489zm0 40c6.335 0 11.489 5.153 11.489 11.488s-5.154 11.489-11.489 11.489c-12.912 0-28.354 0-46.918 0-.57-8.135-2.583-15.88-5.783-22.978 17.58.001 35.132.001 52.701.001zm-61.724 294.705.002 25.36h-165.029v-25.36zm-233.608-319.7c14.224-.188 27.659 5.175 37.819 15.181 10.164 10.011 15.762 23.354 15.762 37.574.001 11.426.033 327.552.035 347.306-.284 0-4.725-.007-10.035.035v-347.341c0-23.578-19.182-42.76-42.76-42.76h-30.67c8.601-6.301 18.922-9.828 29.849-9.995zm-26.94 185.986h55.521v25.359h-55.521zm-86.75-113.013c-20.12 0-36.489-16.37-36.489-36.49s16.369-36.488 36.489-36.488c9.427 0 18.381 3.711 25.062 10h-25.062c-14.606 0-26.489 11.883-26.489 26.488 0 14.606 11.883 26.489 26.489 26.489h25.062c-6.681 6.289-15.635 10.001-25.062 10.001zm61.751-10h9.999v59.362c0 4.143 3.357 7.5 7.5 7.5s7.5-3.357 7.5-7.5v-59.362h10.391c4.143 0 7.5-3.357 7.5-7.5s-3.357-7.5-7.5-7.5c-19.821 0-79.562 0-97.141 0-6.335 0-11.489-5.155-11.489-11.49s5.154-11.488 11.489-11.488h114.511c13.677 0 25.075 9.941 27.348 22.978h-9.718c-4.143 0-7.5 3.357-7.5 7.5s3.357 7.5 7.5 7.5h10.13v108.014h-55.521v-13.651c0-4.143-3.357-7.5-7.5-7.5s-7.5 3.357-7.5 7.5c.007 23.513.023 83.274.03 109.012-.228 0-.453.011-.675.031l-9.354.004zm24.999 203.398v-40.025h55.521v40.004zm95.521 133.69v-40h165.031l.004 40zm226.751-327.088c-9.427 0-18.381-3.711-25.062-10h25.062c14.606 0 26.489-11.883 26.489-26.489 0-14.605-11.883-26.488-26.489-26.488h-25.062c6.681-6.289 15.635-10 25.062-10 20.12 0 36.489 16.368 36.489 36.488s-16.369 36.489-36.489 36.489z"/></g></svg>