<?xml version="1.0"?>
<svg xmlns="http://www.w3.org/2000/svg" width="512" height="512" viewBox="0 0 512 512"><path d="M477.04,370.19a986.291,986.291,0,0,0,1.12-284.76,40.012,40.012,0,1,0-51.59-51.59c-8.54-1.21-17.14-2.31-25.65-3.3-10.52-1.22-21.38-2.29-32.26-3.19-21.39-1.78-43.1-2.86-64.53-3.21-10.7-.17-21.55-.17-32.26,0-21.43.35-43.14,1.43-64.53,3.21-10.88.9-21.74,1.97-32.26,3.19-8.51.99-17.11,2.09-25.65,3.3A40.012,40.012,0,1,0,97.84,85.43c-.13.93-.25,1.86-.38,2.79-4.01.52-8.03,1.06-12.03,1.62a40.012,40.012,0,1,0-51.59,51.59,986.291,986.291,0,0,0,1.12,284.76,40,40,0,1,0,52.52,44.26c7.94,1.11,15.84,2.12,23.6,3.02,10.81,1.24,21.66,2.32,32.26,3.19,21.24,1.77,42.95,2.84,64.53,3.21,10.71.17,21.56.17,32.26,0,21.58-.37,43.29-1.44,64.53-3.21,10.6-.87,21.45-1.95,32.26-3.19,7.76-.9,15.66-1.91,23.6-3.02a40,40,0,1,0,52.52-44.26c.52-3.47,1.02-6.93,1.5-10.4q4.98-.645,9.98-1.34a40,40,0,1,0,52.52-44.26ZM397.31,136.75a970.692,970.692,0,0,1-1.19,294.27,8,8,0,0,0,6.9,9.18A24,24,0,1,1,376,464c0-.6.03-1.27.1-2.11a8,8,0,0,0-7.98-8.62,7.684,7.684,0,0,0-1.17.09c-10.7,1.58-21.42,3-31.87,4.21-10.63,1.23-21.31,2.29-31.74,3.15-20.9,1.73-42.26,2.79-63.47,3.15-10.53.17-21.21.17-31.74,0-21.21-.36-42.57-1.42-63.47-3.15-10.43-.86-21.11-1.92-31.74-3.15-10.45-1.21-21.17-2.63-31.87-4.21a8,8,0,0,0-9.15,8.53c.07.84.1,1.51.1,2.11a24,24,0,1,1-27.02-23.8,8,8,0,0,0,6.9-9.18,970.692,970.692,0,0,1-1.19-294.27,7.983,7.983,0,0,0-6.62-9.07,24,24,0,1,1,27.61-27.61,7.991,7.991,0,0,0,9.07,6.62c10.66-1.59,21.49-3.02,32.17-4.25,10.35-1.21,21.03-2.26,31.74-3.15,21.05-1.74,42.4-2.81,63.47-3.15,10.53-.17,21.21-.17,31.74,0,21.07.34,42.42,1.41,63.47,3.15,10.71.89,21.39,1.94,31.74,3.15,10.68,1.23,21.51,2.66,32.17,4.25a8,8,0,0,0,9.07-6.62,24,24,0,1,1,27.61,27.61A7.983,7.983,0,0,0,397.31,136.75ZM464,432a24.032,24.032,0,0,1-24-24c0-.6.03-1.27.1-2.11a8,8,0,0,0-9.15-8.53c-4.74.7-9.51,1.36-14.27,2a986.4,986.4,0,0,0-2.52-257.93,40.012,40.012,0,1,0-51.59-51.59c-8.54-1.21-17.14-2.31-25.65-3.3-10.52-1.22-21.38-2.29-32.26-3.19-21.4-1.78-43.11-2.86-64.53-3.21-10.7-.17-21.55-.17-32.26,0-21.42.35-43.13,1.43-64.53,3.21-9.92.82-19.8,1.79-29.44,2.88.26-1.83.52-3.66.79-5.47a7.993,7.993,0,0,0-6.62-9.08,24,24,0,1,1,27.61-27.61,7.991,7.991,0,0,0,9.07,6.62c10.66-1.59,21.48-3.02,32.17-4.25,10.35-1.21,21.03-2.26,31.74-3.15,21.05-1.74,42.4-2.8,63.47-3.15,10.53-.17,21.21-.17,31.74,0,21.07.35,42.42,1.41,63.47,3.15,10.71.89,21.39,1.94,31.74,3.15,10.69,1.23,21.51,2.66,32.17,4.25a8,8,0,0,0,9.07-6.62,24,24,0,1,1,27.61,27.61,7.983,7.983,0,0,0-6.62,9.07,970.692,970.692,0,0,1-1.19,294.27,8,8,0,0,0,6.9,9.18A24,24,0,0,1,464,432Z"/></svg>
