<svg height="512pt" viewBox="-65 0 511 512" width="512pt" xmlns="http://www.w3.org/2000/svg"><path d="m324.695312 55.804688c-35.984374-35.988282-83.644531-55.804688-134.195312-55.804688s-98.210938 19.816406-134.195312 55.804688c-35.984376 35.984374-55.804688 83.644531-55.804688 134.195312v132c0 50.550781 19.816406 98.210938 55.804688 134.195312 35.984374 35.988282 83.644531 55.804688 134.195312 55.804688s98.207031-19.816406 134.195312-55.804688c35.984376-35.984374 55.804688-83.644531 55.804688-134.195312v-132c0-50.550781-19.820312-98.210938-55.804688-134.195312zm35.804688 266.195312c0 93.738281-76.261719 170-170 170s-170-76.261719-170-170v-132c0-93.738281 76.261719-170 170-170s170 76.261719 170 170zm0 0"/><path d="m190.5 40c-22.8125 0-44.761719 5.054688-65.234375 15.019531-4.96875 2.417969-7.03125 8.402344-4.613281 13.367188 2.417968 4.96875 8.398437 7.03125 13.367187 4.613281 17.722657-8.625 36.726563-13 56.480469-13 14.421875 0 28.300781 2.363281 41.277344 6.71875l-54.25 54.25c-3.902344 3.90625-3.902344 10.238281 0 14.144531 1.953125 1.953125 4.511718 2.925781 7.070312 2.925781 2.5625 0 5.121094-.972656 7.074219-2.925781l59.863281-59.867187c9.6875 5.175781 18.648438 11.535156 26.679688 18.894531l-122.789063 122.785156c-3.902343 3.90625-3.902343 10.238281 0 14.144531 1.953125 1.953126 4.511719 2.929688 7.074219 2.929688 2.558594 0 5.117188-.976562 7.070312-2.929688l122.324219-122.324218c17.886719 22.269531 28.605469 50.53125 28.605469 81.253906v61.859375l-53.074219 53.070313c-3.902343 3.902343-3.902343 10.234374 0 14.140624 1.953125 1.953126 4.511719 2.929688 7.070313 2.929688 2.5625 0 5.121094-.976562 7.074218-2.929688l38.929688-38.925781v41.855469c0 71.683594-58.320312 130-130 130-40.890625 0-77.421875-18.980469-101.269531-48.585938l54.339843-54.34375c3.90625-3.90625 3.90625-10.238281 0-14.144531-3.902343-3.902343-10.234374-3.902343-14.140624 0l-51.699219 51.699219c-10.957031-19.046875-17.230469-41.117188-17.230469-64.625v-132c0-20.464844 4.683594-40.089844 13.921875-58.332031 2.496094-4.925781.523437-10.941407-4.402344-13.4375-4.925781-2.496094-10.945312-.523438-13.4375 4.402343-10.671875 21.066407-16.082031 43.734376-16.082031 67.367188v132c0 82.710938 67.289062 150 150 150 82.707031 0 149.996094-67.289062 149.996094-150v-65.996094-.007812-65.996094c.003906-82.710938-67.285156-150-149.996094-150zm0 0"/><path d="m249.753906 350.886719c3.902344-3.902344 3.902344-10.234375 0-14.140625-3.90625-3.90625-10.238281-3.90625-14.144531 0l-.003906.003906c-3.90625 3.90625-3.902344 10.234375.003906 14.140625 1.949219 1.953125 4.507813 2.929687 7.066406 2.929687 2.5625 0 5.125-.980468 7.078125-2.933593zm0 0"/><path d="m92.367188 100.382812c2.71875 0 5.429687-1.101562 7.402343-3.269531l.003907-.007812c3.714843-4.085938 3.414062-10.40625-.671876-14.121094-4.089843-3.714844-10.414062-3.414063-14.128906.675781-3.714844 4.085938-3.414062 10.410156.671875 14.125 1.917969 1.742188 4.324219 2.597656 6.722657 2.597656zm0 0"/></svg>