<svg id="Capa_1" enable-background="new 0 0 512 512" height="512" viewBox="0 0 512 512" width="512" xmlns="http://www.w3.org/2000/svg"><g><path d="m479.419 113.162h-41.924c-.512-11.249-9.796-20.25-21.17-20.25-11.7 0-21.218 9.519-21.218 21.219v43.586h-16.469c.442-1.659.701-3.391.701-5.188v-63.859c0-7.103-2.18-13.838-6.268-19.584-.139-.22-.289-.435-.453-.642-.096-.129-.179-.265-.278-.393-4.778-6.219-7.304-13.446-7.304-20.901v-30.588c0-9.132-7.43-16.562-16.562-16.562h-11.479c-9.132 0-16.562 7.43-16.562 16.562v30.587c0 7.455-2.526 14.683-7.305 20.901-.085.111-.156.228-.24.34-.184.228-.348.466-.501.71-4.082 5.743-6.258 12.473-6.258 19.57v63.859c0 1.796.258 3.529.701 5.188h-18.145c-3.216-41.688-33.008-76.046-72.414-86.114.134-1.032.208-2.075.208-3.129 0-13.296-10.817-24.113-24.113-24.113s-24.114 10.817-24.114 24.113c0 1.047.075 2.092.211 3.128-39.407 10.067-69.201 44.426-72.417 86.115h-16.06v-43.587c0-11.699-9.519-21.218-21.219-21.218s-21.218 9.519-21.218 21.218v313.932h-4.957c-11.931 0-21.638 9.707-21.638 21.638s9.707 21.638 21.638 21.638h25.656c-.907 2.93-1.397 6.042-1.397 9.267 0 17.313 14.084 31.396 31.397 31.396 8.161 0 15.604-3.132 21.193-8.255.504.024 1.007.061 1.51.061 17.313 0 31.397-14.084 31.397-31.396 0-.359-.027-.715-.04-1.073h190.474c-.012.358-.037.715-.037 1.073 0 17.313 14.084 31.396 31.397 31.396.505 0 1.012-.029 1.518-.054 5.588 5.118 13.027 8.247 21.185 8.247 17.313 0 31.397-14.084 31.397-31.396 0-3.224-.49-6.336-1.397-9.267h25.656c11.931 0 21.638-9.707 21.638-21.638s-9.707-21.638-21.638-21.638h-4.957v-18.03c0-4.143-3.358-7.5-7.5-7.5s-7.5 3.357-7.5 7.5v18.03h-12.437v-313.93c0-3.429 2.79-6.219 6.218-6.219 3.429 0 6.219 2.79 6.219 6.219v260.505c0 4.143 3.358 7.5 7.5 7.5s7.5-3.357 7.5-7.5v-218.219h41.875c11.925 0 21.627-9.702 21.627-21.628 0-11.925-9.701-21.627-21.627-21.627zm-84.311 190.306h-23.445l6.16-38.336c.628-3.91-.484-7.883-3.054-10.897-2.569-3.015-6.314-4.744-10.275-4.744h-43.13c-4.142 0-7.5 3.357-7.5 7.5s3.358 7.5 7.5 7.5h41.37l-6.263 38.978h-76.924l-6.263-38.978h12.686c4.142 0 7.5-3.357 7.5-7.5s-3.358-7.5-7.5-7.5h-14.446c-3.961 0-7.706 1.729-10.275 4.744s-3.682 6.987-3.054 10.897l6.16 38.336h-25.074c.135-.213.279-.417.409-.635 4.408-7.364 5.684-16.005 3.593-24.329s-7.298-15.336-14.664-19.743c-7.364-4.408-16.005-5.684-24.329-3.593-8.325 2.091-15.336 7.298-19.744 14.663-6.418 10.724-5.83 23.716.405 33.637h-18.415c4.526-7.174 6.236-16.108 4.011-24.965-4.316-17.184-21.807-27.649-38.992-23.337-17.184 4.317-27.653 21.809-23.336 38.993.85 3.386 2.218 6.506 3.988 9.309h-32.222v-100.096h315.123zm-197.691-25.934c2.35-3.927 6.088-6.703 10.527-7.818 1.394-.35 2.803-.522 4.204-.522 3.06 0 6.075.826 8.769 2.438 3.926 2.35 6.703 6.088 7.817 10.526s.435 9.045-1.916 12.972c-4.85 8.105-15.391 10.755-23.499 5.903-8.105-4.851-10.753-15.392-5.902-23.499zm-62.208-7.819c1.396-.351 2.794-.519 4.172-.519 7.668 0 14.667 5.194 16.619 12.961 2.301 9.162-3.281 18.489-12.442 20.79-9.163 2.304-18.489-3.28-20.791-12.442s3.28-18.489 12.442-20.79zm-55.224 48.753h315.123v15.655h-315.123zm255.448-301.906c0-.861.701-1.562 1.562-1.562h11.479c.861 0 1.562.7 1.562 1.562v30.587c0 8.672 2.459 17.365 7.005 25.015l-12.129 12.129c-1.201 1.201-3.157 1.2-4.358.001l-12.128-12.129c4.547-7.65 7.007-16.344 7.007-25.017zm-14.304 135.967v-63.859c0-.818.066-1.624.168-2.421l8.651 8.652c3.524 3.524 8.155 5.286 12.785 5.286s9.261-1.762 12.786-5.287l8.653-8.653c.102.798.168 1.605.168 2.424v63.859c0 2.86-2.327 5.188-5.187 5.188h-32.836c-2.861-.001-5.188-2.328-5.188-5.189zm-137.878-84.055c0-5.025 4.088-9.113 9.114-9.113 5.025 0 9.113 4.088 9.113 9.113 0 .19-.016.376-.028.564-2.992-.281-6.022-.43-9.086-.43-3.063 0-6.09.15-9.081.43-.01-.188-.032-.374-.032-.564zm-39.949 104.243c4.142 0 7.5-3.357 7.5-7.5s-3.358-7.5-7.5-7.5h-32.188c3.801-41.496 38.781-74.109 81.251-74.109s77.45 32.614 81.25 74.109h-94.918c-4.142 0-7.5 3.357-7.5 7.5s3.358 7.5 7.5 7.5h216.41v15.655h-315.122v-15.655zm-90.754-58.587c0-3.429 2.79-6.218 6.218-6.218 3.429 0 6.219 2.789 6.219 6.218v313.932h-12.437zm19.303 366.474c0-6.338 3.621-11.837 8.897-14.565v14.565c0 4.143 3.358 7.5 7.5 7.5s7.5-3.357 7.5-7.5v-14.565c5.276 2.728 8.897 8.227 8.897 14.565 0 9.041-7.355 16.396-16.397 16.396s-16.397-7.355-16.397-16.396zm55.497-8.194c0 6.092-3.347 11.408-8.292 14.235.383-1.956.589-3.975.589-6.042 0-3.224-.49-6.336-1.397-9.267h9.061c.022.357.039.715.039 1.074zm220.398 0c0-.359.014-.717.037-1.073h9.063c-.907 2.93-1.397 6.042-1.397 9.267 0 2.067.206 4.085.589 6.042-4.945-2.827-8.292-8.144-8.292-14.236zm39.1 24.59c-9.042 0-16.397-7.355-16.397-16.396 0-6.338 3.621-11.837 8.897-14.565v14.565c0 4.143 3.358 7.5 7.5 7.5s7.5-3.357 7.5-7.5v-14.565c5.276 2.728 8.897 8.227 8.897 14.565 0 9.041-7.356 16.396-16.397 16.396zm62.294-47.301c0 3.66-2.978 6.638-6.638 6.638h-35.757c-5.421-4.453-12.353-7.131-19.899-7.131s-14.479 2.678-19.899 7.131h-258.8c-5.421-4.453-12.353-7.131-19.899-7.131s-14.479 2.678-19.899 7.131h-35.758c-3.66 0-6.638-2.978-6.638-6.638s2.978-6.638 6.638-6.638h409.911c3.66.001 6.638 2.978 6.638 6.638zm-326.767-58.147c-.729-1.104-1.341-2.267-1.832-3.479h79.036c-.493 1.215-1.107 2.381-1.842 3.493-.742 1.129-1.604 2.187-2.561 3.145-3.755 3.755-8.736 5.828-14.037 5.854h-42.214c-6.683-.052-12.859-3.406-16.55-9.013zm0 27.491c-.729-1.104-1.341-2.266-1.832-3.478 0 0 18.487.005 18.54.005 0 0 42.09-.005 42.157-.005h18.339c-.492 1.214-1.107 2.381-1.843 3.494-.741 1.128-1.602 2.186-2.56 3.144-3.777 3.777-8.798 5.858-14.137 5.858h-41.957c-6.744.001-12.987-3.367-16.707-9.018zm132.273-27.491c-.729-1.104-1.341-2.267-1.832-3.479h79.036c-.493 1.215-1.107 2.381-1.842 3.493-.742 1.129-1.604 2.187-2.561 3.145-3.755 3.755-8.736 5.828-14.037 5.854h-42.214c-6.684-.052-12.86-3.406-16.55-9.013zm0 27.491c-.729-1.104-1.341-2.266-1.832-3.478 0 0 18.487.005 18.54.005h41.957c.067 0 18.539-.005 18.539-.005-.492 1.214-1.107 2.381-1.843 3.494-.741 1.128-1.602 2.186-2.56 3.144-3.777 3.777-8.798 5.858-14.137 5.858h-41.957c-6.745.001-12.988-3.367-16.707-9.018zm87.365 9.019c.174-.25.355-.497.521-.751 2.323-3.517 3.973-7.38 4.902-11.481.844-3.724-.04-7.573-2.424-10.56-1.115-1.396-2.494-2.501-4.029-3.296.543-.702 1.067-1.417 1.551-2.154 2.323-3.517 3.972-7.38 4.902-11.482.844-3.724-.04-7.573-2.424-10.56-2.388-2.989-5.951-4.704-9.775-4.704h-85.809c-3.824 0-7.387 1.715-9.774 4.704-2.385 2.986-3.269 6.836-2.424 10.559.93 4.104 2.579 7.967 4.895 11.473.492.747 1.017 1.464 1.558 2.164-1.535.795-2.914 1.9-4.029 3.297-2.385 2.986-3.269 6.835-2.424 10.559.929 4.103 2.579 7.966 4.895 11.472.171.26.358.507.536.762h-32.92c.174-.25.355-.497.521-.751 2.323-3.517 3.973-7.38 4.902-11.481.844-3.725-.04-7.573-2.424-10.56-1.115-1.396-2.494-2.501-4.029-3.296.543-.702 1.067-1.417 1.551-2.154 2.323-3.517 3.972-7.38 4.902-11.482.844-3.724-.04-7.573-2.424-10.56-2.388-2.989-5.95-4.704-9.774-4.704h-85.809c-3.824 0-7.387 1.715-9.775 4.704-2.385 2.986-3.269 6.836-2.424 10.559.93 4.104 2.579 7.967 4.895 11.474.492.747 1.017 1.463 1.558 2.164-1.535.795-2.913 1.9-4.029 3.296-2.385 2.986-3.269 6.836-2.424 10.559.929 4.103 2.579 7.966 4.895 11.473.171.26.358.506.535.761h-30.401v-78.938h315.123v78.938h-53.097zm137.408-286.645h-41.875v-13.255h41.875c3.654 0 6.627 2.973 6.627 6.627s-2.972 6.628-6.627 6.628z"/><path d="m132.108 288.157c.855 3.405 3.911 5.676 7.269 5.676.604 0 1.219-.074 1.832-.228 4.017-1.009 6.457-5.084 5.447-9.101l-.832-3.315c-1.009-4.018-5.078-6.452-9.101-5.448-4.018 1.009-6.456 5.084-5.448 9.101z"/><path d="m205.334 291.013 2.933 1.755c1.207.722 2.533 1.065 3.844 1.065 2.551 0 5.038-1.302 6.443-3.649 2.127-3.555.97-8.16-2.584-10.287l-2.933-1.755c-3.555-2.126-8.16-.97-10.287 2.584s-.97 8.16 2.584 10.287z"/></g></svg>