<svg id="Layer_3" enable-background="new 0 0 64 64" height="512" viewBox="0 0 64 64" width="512" xmlns="http://www.w3.org/2000/svg"><g><path d="m58 16h-13v-5c0-2.757-2.243-5-5-5h-16c-2.757 0-5 2.243-5 5v5h-13c-2.757 0-5 2.243-5 5v32c0 2.757 2.243 5 5 5h52c2.757 0 5-2.243 5-5v-32c0-2.757-2.243-5-5-5zm-37-5c0-1.654 1.346-3 3-3h16c1.654 0 3 1.346 3 3v5h-1v-6c0-.553-.447-1-1-1h-18c-.553 0-1 .447-1 1v6h-1zm19 5h-16v-5h16zm21 37c0 1.654-1.346 3-3 3h-52c-1.654 0-3-1.346-3-3v-32c0-1.654 1.346-3 3-3h52c1.654 0 3 1.346 3 3z"/><path d="m58 20h-52c-.553 0-1 .447-1 1v32c0 .553.447 1 1 1h52c.553 0 1-.447 1-1v-32c0-.553-.447-1-1-1zm-1 32h-50v-30h50z"/><path d="m32 50c7.168 0 13-5.832 13-13s-5.832-13-13-13-13 5.832-13 13 5.832 13 13 13zm0-24c6.065 0 11 4.935 11 11s-4.935 11-11 11-11-4.935-11-11 4.935-11 11-11z"/><path d="m29 46c0 .553.447 1 1 1h4c.553 0 1-.447 1-1v-6h6c.553 0 1-.447 1-1v-4c0-.553-.447-1-1-1h-6v-6c0-.553-.447-1-1-1h-4c-.553 0-1 .447-1 1v6h-6c-.553 0-1 .447-1 1v4c0 .553.447 1 1 1h6zm-5-8v-2h6c.553 0 1-.447 1-1v-6h2v6c0 .553.447 1 1 1h6v2h-6c-.553 0-1 .447-1 1v6h-2v-6c0-.553-.447-1-1-1z"/></g></svg>