<svg id="Capa_1" enable-background="new 0 0 512 512" height="512" viewBox="0 0 512 512" width="512" xmlns="http://www.w3.org/2000/svg"><g><path d="m481.483 211.474-189.034-90.017c-2.014-.959-4.218-1.457-6.449-1.457h-15v-25c0-8.284-6.716-15-15-15-13.785 0-25-11.215-25-25s11.215-25 25-25 25 11.215 25 25c0 8.284 6.716 15 15 15s15-6.716 15-15c0-30.327-24.673-55-55-55s-55 24.673-55 55c0 25.13 16.939 46.376 40 52.921v12.079h-15c-2.231 0-4.435.498-6.449 1.457l-189.034 90.017c-17.931 8.538-29.517 26.887-29.517 46.748 0 28.55 23.228 51.778 51.778 51.778h38.222v45c0 8.284 6.716 15 15 15h45v95c0 8.284 6.716 15 15 15h15v17c0 8.284 6.716 15 15 15s15-6.716 15-15v-17h30v17c0 8.284 6.716 15 15 15s15-6.716 15-15v-17h30v17c0 8.284 6.716 15 15 15s15-6.716 15-15v-17h30v17c0 8.284 6.716 15 15 15s15-6.716 15-15v-17h15c8.284 0 15-6.716 15-15v-155h38.222c28.55 0 51.778-23.228 51.778-51.778 0-19.861-11.586-38.21-29.517-46.748zm-360.483 98.526h30v30h-30zm57.43-60h197.57c8.271 0 15 6.729 15 15v125h-210v-125c0-5.217-.902-10.224-2.542-14.887-.011-.038-.015-.076-.028-.113zm-42.43 0c8.271 0 15 6.729 15 15v15h-30v-15c0-8.271 6.729-15 15-15zm45 200v-30h210v30zm278.222-170h-38.222v-15c0-24.813-20.187-45-45-45h-240c-24.813 0-45 20.187-45 45v15h-38.222c-12.008 0-21.778-9.77-21.778-21.778 0-8.354 4.873-16.071 12.415-19.662l185.974-88.56h53.222l185.975 88.56c7.541 3.59 12.414 11.308 12.414 19.662 0 12.008-9.77 21.778-21.778 21.778z"/></g></svg>