<?xml version="1.0" encoding="iso-8859-1"?>
<!-- Generator: Adobe Illustrator 19.0.0, SVG Export Plug-In . SVG Version: 6.00 Build 0)  -->
<svg xmlns="http://www.w3.org/2000/svg" xmlns:xlink="http://www.w3.org/1999/xlink" version="1.1" id="Layer_1" x="0px" y="0px" viewBox="0 0 512 512" style="enable-background:new 0 0 512 512;" xml:space="preserve" width="512" height="512">
<path d="M444.586,251.885c1.002-3.818,1.539-7.823,1.539-11.951c0-7.247-1.647-14.116-4.583-20.257  c17.693-6.794,30.291-23.954,30.291-44.01s-12.598-37.216-30.29-44.011c2.935-6.141,4.582-13.009,4.582-20.256  c0-25.989-21.145-47.134-47.134-47.134h-71.783c2.081-5.315,3.237-11.09,3.237-17.133C330.445,21.145,309.301,0,283.311,0h-73.906  C165.764,0,124.32,15.93,92.019,44.99H55.167c-8.284,0-15,6.716-15,15v231.354c0,8.284,6.716,15,15,15h36.851  c13.717,12.341,29.087,22.303,45.569,29.693l-16.979,140.616c-0.39,3.229,0.28,6.496,1.908,9.311  C131.81,502.023,149.098,512,167.634,512c18.538,0,35.826-9.978,45.116-26.037c3.947-6.822,11.285-11.061,19.15-11.061  c7.865,0,15.203,4.237,19.149,11.062c9.293,16.06,26.581,26.036,45.116,26.036c18.539,0,35.827-9.978,45.117-26.037  c3.947-6.822,11.285-11.061,19.149-11.061c7.866,0,15.204,4.237,19.15,11.062c9.293,16.06,26.581,26.036,45.116,26.036  c18.539,0,35.827-9.978,45.118-26.038c1.628-2.814,2.297-6.081,1.907-9.309L444.586,251.885z M97.918,276.344H70.167V74.99h27.751  c3.883,0,7.614-1.506,10.41-4.2C135.615,44.486,171.512,30,209.405,30h73.906c9.447,0,17.134,7.687,17.134,17.134  s-7.687,17.133-17.134,17.133h-48.2h-16.066c-8.284,0-15,6.716-15,15s6.716,15,15,15h16.066h48.2h115.68  c9.447,0,17.134,7.687,17.134,17.134s-7.686,17.133-17.134,17.133h-38.559h-54.626c-8.284,0-15,6.716-15,15c0,8.284,6.716,15,15,15  h54.626h38.559h25.708c9.447,0,17.134,7.686,17.134,17.134c0,9.447-7.686,17.133-17.134,17.133h-25.708h-38.559h-54.626  c-8.284,0-15,6.716-15,15c0,8.284,6.716,15,15,15h54.626h38.559c9.447,0,17.134,7.686,17.134,17.134  c0,9.444-7.682,17.127-17.124,17.133c-0.003,0-0.007-0.001-0.01-0.001h-51.413h-12.852h-67.482c-8.284,0-15,6.716-15,15  c0,8.284,6.716,15,15,15h67.482h12.852c9.447,0,17.134,7.686,17.134,17.133c0,9.447-7.687,17.134-17.134,17.134  c-0.007,0-0.013,0.001-0.02,0.001H209.405c-17.412,0-34.398-3.066-50.324-8.923c-0.206-0.076-0.409-0.157-0.62-0.225  c-18.498-6.899-35.547-17.579-50.133-31.641C105.533,277.85,101.801,276.344,97.918,276.344z M424.699,482  c-7.864,0-15.202-4.238-19.148-11.06c-9.29-16.06-26.578-26.038-45.118-26.038c-18.536,0-35.824,9.977-45.117,26.038  c-3.946,6.821-11.284,11.06-19.149,11.06c-7.864,0-15.201-4.238-19.148-11.06c-9.29-16.06-26.578-26.038-45.117-26.038  c-18.537,0-35.825,9.977-45.118,26.038c-3.946,6.821-11.283,11.06-19.148,11.06c-6.37,0-12.395-2.781-16.552-7.463l15.51-128.46  c13.853,3.463,28.208,5.256,42.814,5.256h7.495v44.303c0,8.284,6.716,15,15,15c8.284,0,15-6.716,15-15v-44.303h98.532v44.303  c0,8.284,6.716,15,15,15c8.284,0,15-6.716,15-15V342.19c11.681-8.587,19.279-22.416,19.279-37.991  c0-6.043-1.156-11.818-3.237-17.133h7.497c0.007,0,0.013,0.001,0.02,0.001c6.811,0,13.281-1.464,19.133-4.074l23.128,191.546  C437.095,479.22,431.07,482,424.699,482z"/>















</svg>
