<svg height="512pt" viewBox="0 -149 512 512" width="512pt" xmlns="http://www.w3.org/2000/svg"><path d="m502 109.199219h-27.179688c.257813-.25.515626-.5.769532-.753907 28.839844-28.84375 19.351562-82.632812 18.933594-84.910156-.75-4.082031-3.945313-7.277344-8.027344-8.027344-2.277344-.417968-56.0625-9.90625-84.90625 18.9375-4.433594 4.433594-7.960938 9.453126-10.753906 14.789063-2.796876-5.335937-6.320313-10.355469-10.753907-14.789063-21.640625-21.640624-57.320312-21.703124-74.757812-20.210937v-4.234375c0-5.523438-4.476563-10-10-10h-119.671875c-5.523438 0-10 4.476562-10 10v80.226562c0 6.882813 1.792968 13.355469 4.9375 18.972657h-20.199219c3.144531-5.617188 4.9375-12.089844 4.9375-18.972657v-80.226562c0-5.523438-4.476563-10-10-10h-119.671875c-5.519531 0-10 4.476562-10 10v80.226562c0 6.882813 1.792969 13.355469 4.941406 18.972657h-10.597656c-5.523438 0-10 4.476562-10 10v51.992187c0 5.523438 4.476562 10 10 10h23v23.332032c0 5.523437 4.476562 10 10 10h102.664062c5.523438 0 10-4.476563 10-10v-23.332032h86.667969c5.523438 0 10-4.476562 10-10 0-5.523437-4.476562-10-10-10h-222.332031v-31.992187h472v31.992187h-158c-5.523438 0-10 4.476563-10 10 0 5.523438 4.476562 10 10 10h22.332031v23.332032c0 5.523437 4.476563 10 10 10h102.667969c5.523438 0 10-4.476563 10-10v-23.332032h23c5.523438 0 10-4.476562 10-10v-51.992187c0-5.523438-4.476562-10-10-10zm-366.335938 71.992187v13.332032h-82.664062v-13.332032zm280.066407-132.605468c16.277343-16.277344 46.410156-15.59375 60.085937-14.296876 1.542969 16.042969.800782 44.84375-14.371094 60.015626-12.050781 12.050781-31.695312 14.800781-46.632812 14.894531h-.359375l22.773437-22.773438c3.90625-3.90625 3.90625-10.238281 0-14.144531-3.90625-3.902344-10.234374-3.902344-14.140624 0l-22.261719 22.261719c0-.046875 0-.09375 0-.140625.292969-15.546875 3.574219-34.480469 14.90625-45.816406zm-109.808594-14.367188c16.046875-1.546875 44.84375-.804688 60.015625 14.367188 11.867188 11.867187 14.71875 31.09375 14.890625 45.941406l-22.246094-22.246094c-3.90625-3.902344-10.234375-3.902344-14.140625 0-3.90625 3.90625-3.90625 10.238281 0 14.144531l22.773438 22.773438h-1.609375c-15.460938-.34375-34.15625-3.667969-45.382813-14.898438-12.046875-12.042969-14.800781-31.675781-14.898437-46.609375v-1.644531c.03125-4.578125.296875-8.648437.597656-11.828125zm-251.289063 74.980469c-10.464843 0-18.976562-8.511719-18.976562-18.972657v-70.226562h99.671875v70.226562c0 10.460938-8.507813 18.972657-18.972656 18.972657zm149.992188 0c-10.460938 0-18.972656-8.511719-18.972656-18.972657v-70.226562h99.671875v25.402344c-.007813.734375-.007813 1.484375 0 2.238281v42.582031c0 10.464844-8.511719 18.976563-18.972657 18.976563zm95.761719 0c.828125-1.476563 1.558593-3.011719 2.191406-4.597657 1.097656 1.324219 2.265625 2.605469 3.5 3.84375.253906.253907.511719.503907.769531.753907zm158.613281 85.324219h-82.667969v-13.332032h82.667969zm0 0"/><path d="m289 181.191406c-.648438 0-1.3125-.070312-1.949219-.199218-.640625-.128907-1.269531-.320313-1.878906-.570313-.601563-.25-1.183594-.558594-1.722656-.917969-.550781-.363281-1.058594-.78125-1.519531-1.242187-.460938-.460938-.878907-.96875-1.238282-1.519531-.359375-.539063-.671875-1.121094-.921875-1.730469-.25-.601563-.449219-1.230469-.570312-1.871094-.128907-.636719-.199219-1.296875-.199219-1.949219 0-.648437.070312-1.308594.199219-1.960937.121093-.628907.320312-1.257813.570312-1.867188.25-.601562.5625-1.179687.921875-1.722656.359375-.546875.777344-1.058594 1.238282-1.519531.460937-.460938.96875-.878906 1.519531-1.238282.539062-.371093 1.121093-.671874 1.722656-.921874.609375-.25 1.238281-.449219 1.878906-.570313 1.289063-.257813 2.609375-.257813 3.898438 0 .640625.121094 1.269531.320313 1.871093.570313.609376.25 1.1875.550781 1.730469.921874.546875.359376 1.058594.777344 1.519531 1.238282.460938.460937.878907.972656 1.238282 1.519531.359375.542969.671875 1.121094.921875 1.722656.25.609375.449219 1.238281.570312 1.867188.128907.652343.199219 1.3125.199219 1.960937 0 .652344-.070312 1.3125-.199219 1.949219-.121093.640625-.320312 1.269531-.570312 1.871094-.25.609375-.5625 1.191406-.921875 1.730469-.359375.550781-.777344 1.058593-1.238282 1.519531-.460937.460937-.972656.878906-1.519531 1.242187-.542969.359375-1.121093.667969-1.730469.917969-.601562.25-1.230468.441406-1.871093.570313-.640625.128906-1.300781.199218-1.949219.199218zm0 0"/></svg>