<svg id="Layer_1" enable-background="new 0 0 512 512" height="512" viewBox="0 0 512 512" width="512" xmlns="http://www.w3.org/2000/svg"><path d="m400 0h-288c-8.836 0-16 7.164-16 16v448c0 26.467 21.533 48 48 48h224c26.468 0 48-21.533 48-48 0-11.811 0-436.157 0-448 0-8.836-7.163-16-16-16zm-16 464c0 8.822-7.178 16-16 16h-224c-8.822 0-16-7.178-16-16v-32.038c13.379 10.065 30.007 16.038 48 16.038h160c17.993 0 34.621-5.973 48-16.038zm-48-48h-160c-26.467 0-48-21.533-48-48v-336h256v336c0 26.467-21.532 48-48 48z"/></svg>