<svg id="Layer_1" enable-background="new 0 0 512 512" height="512" viewBox="0 0 512 512" width="512" xmlns="http://www.w3.org/2000/svg"><g><path d="m388.58 368c74.382 0 123.42-57.1 123.42-120 0-26.467-21.532-48-48-48h-50.266l2.245-31.43c.33-4.625-3.335-8.57-7.979-8.57h-400c-4.637 0-8.31 3.937-7.979 8.57l8.332 116.645c4.697 65.77 32.648 125.81 75.884 170.785h-76.237c-4.418 0-8 3.582-8 8 0 26.467 21.532 48 48 48h320c26.468 0 48-21.533 48-48 0-4.418-3.582-8-8-8h-76.237c25.191-26.203 44.043-56.229 56.817-88zm21.726-120h53.694c0 35.759-26.511 65.74-60.903 71.124 4.251-21.485 4.573-34.216 7.209-71.124zm53.694-32c17.645 0 32 14.355 32 32 0 56.747-45.286 102.685-101.564 103.97 1.782-5.379 3.4-10.805 4.842-16.279 45.049-3.733 80.722-41.83 80.722-87.691 0-8.822-7.178-16-16-16h-52.551l1.143-16zm-96 280h-320c-14.884 0-27.427-10.213-30.987-24h381.975c-3.561 13.787-16.104 24-30.988 24zm-260.876-40c-48.702-44.855-78.088-105.78-82.812-171.925l-7.72-108.075h71.408v48h-14c-9.925 0-18 8.075-18 18v60c0 9.925 8.075 18 18 18h44c9.925 0 18-8.075 18-18v-60c0-9.925-8.075-18-18-18h-14v-48h295.408l-7.72 108.075c-4.718 66.059-34.062 127.027-82.812 171.925zm10.876-216c1.103 0 2 .897 2 2v60c0 1.103-.897 2-2 2h-44c-1.103 0-2-.897-2-2v-60c0-1.103.897-2 2-2z"/><path d="m196 96c0 4.418 3.582 8 8 8s8-3.582 8-8c0-11.451 8-12.695 8-29.334 0-9.374-2.76-14.433-4.977-18.498-1.82-3.338-3.023-5.543-3.023-10.837 0-11.45 8-12.692 8-29.331 0-4.418-3.582-8-8-8s-8 3.582-8 8c0 11.45-8 12.693-8 29.331 0 9.374 2.76 14.433 4.977 18.498 1.82 3.338 3.023 5.543 3.023 10.837 0 11.451-8 12.695-8 29.334z"/><path d="m272 128c0 4.418 3.582 8 8 8s8-3.582 8-8c0-11.451 8-12.695 8-29.334 0-9.374-2.76-14.433-4.977-18.498-1.82-3.338-3.023-5.543-3.023-10.837 0-11.45 8-12.692 8-29.331 0-4.418-3.582-8-8-8s-8 3.582-8 8c0 11.45-8 12.693-8 29.331 0 9.374 2.76 14.433 4.977 18.498 1.82 3.338 3.023 5.543 3.023 10.837 0 11.451-8 12.695-8 29.334z"/><path d="m120 128c0 4.418 3.582 8 8 8s8-3.582 8-8c0-11.451 8-12.695 8-29.334 0-9.374-2.76-14.433-4.977-18.498-1.82-3.338-3.023-5.543-3.023-10.837 0-11.45 8-12.692 8-29.331 0-4.418-3.582-8-8-8s-8 3.582-8 8c0 11.45-8 12.693-8 29.331 0 9.374 2.76 14.433 4.977 18.498 1.82 3.338 3.023 5.543 3.023 10.837 0 11.451-8 12.695-8 29.334z"/></g></svg>