<svg id="Capa_1" enable-background="new 0 0 512 512" height="512" viewBox="0 0 512 512" width="512" xmlns="http://www.w3.org/2000/svg"><path d="m440.96 85.792h-36.277c-4.233 0-7.664 3.431-7.664 7.664s3.431 7.664 7.664 7.664h36.277c4.233 0 7.664-3.431 7.664-7.664s-3.432-7.664-7.664-7.664z"/><path d="m440.96 118.426h-36.277c-4.233 0-7.664 3.431-7.664 7.664s3.431 7.664 7.664 7.664h36.277c4.233 0 7.664-3.431 7.664-7.664 0-4.232-3.432-7.664-7.664-7.664z"/><path d="m440.96 151.061h-36.277c-4.233 0-7.664 3.431-7.664 7.664s3.431 7.664 7.664 7.664h36.277c4.233 0 7.664-3.431 7.664-7.664s-3.432-7.664-7.664-7.664z"/><path d="m490.609 51.491-86.889-41.948c-17.01-8.211-36.541-10.45-54.915-6.346l-249.693 55.751c-21.514-.36-54.147-15.727-71.82-24.937-12.442-6.487-27.292 2.547-27.292 16.55v151.056c0 14.027 14.87 23.025 27.293 16.551 17.672-9.21 50.304-24.577 71.82-24.937l150.3 33.558c29.977 6.694 52.44 31.542 56.454 61.551h-12.882c-9.66 0-17.382 8.165-16.785 17.868 1.106 17.967 2.814 36.161 5.077 54.077 1.062 8.406 8.235 14.745 16.684 14.745h16.201c.907 6.296 1.861 12.581 2.907 18.838.699 4.175 4.65 6.994 8.823 6.295 4.175-.698 6.993-4.648 6.295-8.823-1.372-8.204-2.619-16.448-3.746-24.715-.006-.065-.017-.128-.025-.192-3.286-24.138-5.528-48.477-6.678-72.641-1.023-21.492-9.854-41.234-23.895-56.19 49.128 10.463 54.176 13.385 69.221 13.385 24.837 0 40.093-10.547 45.504-12.625-8.212 14.238-12.474 30.775-11.744 47.926 2.228 52.386 10.07 105.061 23.308 156.56 1.483 5.772-2.816 11.38-8.752 11.38-14.985 0-47.244 0-63.063 0-4.22 0-7.846-2.858-8.818-6.949-1.659-6.986-3.246-14.066-4.716-21.042-.873-4.141-4.933-6.792-9.08-5.919-4.142.873-6.792 4.939-5.919 9.08 1.497 7.103 3.113 14.311 4.802 21.422 2.62 11.031 12.378 18.736 23.731 18.736h2.578l9.216 28.763c2.393 7.469 9.27 12.487 17.113 12.487h23.061c11.271 0 19.746-10.249 17.658-21.304l-3.795-20.102c14.504-1.625 24.575-15.802 20.831-30.369-12.972-50.466-20.656-102.075-22.839-153.395-1.24-29.166 14.938-56.21 41.217-68.897l33.253-16.054c12.993-6.271 21.39-19.649 21.39-34.078v-81.035c0-14.43-8.397-27.808-21.391-34.081zm-86.325 443.988h-23.061c-1.153 0-2.164-.737-2.515-1.836l-7.717-24.086h31.587l4.303 22.791c.307 1.626-.939 3.131-2.597 3.131zm-384.075-290.904c-2.233 1.164-4.88-.44-4.88-2.958v-151.056c0-2.498 2.631-4.131 4.88-2.958 20.92 10.903 49.393 23.673 72.009 26.225v104.523c-22.618 2.552-51.09 15.321-72.009 26.224zm277.752 155.127c-.745 0-1.381-.575-1.477-1.338-2.222-17.592-3.9-35.456-4.985-53.097-.054-.874.627-1.599 1.485-1.599h13.947c1.094 18.66 2.818 37.39 5.158 56.034zm198.711-193.095c0 8.585-4.996 16.544-12.727 20.277l-33.253 16.054c-.1.048-.197.102-.297.15-.039.018-.079.031-.118.05l-53.221 25.694c-7.392 3.569-15.366 5.746-23.476 6.51v-153.111c0-4.233-3.431-7.664-7.664-7.664s-7.664 3.431-7.664 7.664v152.857c-4.536-.587 10.765 2.701-250.705-55.68v-106.638c259.35-57.798 244.743-54.909 250.705-55.68v29.311c0 4.233 3.431 7.664 7.664 7.664s7.664-3.431 7.664-7.664v-29.565c8.111.764 16.084 2.942 23.476 6.51l86.889 41.948c7.731 3.733 12.727 11.692 12.727 20.277z"/></svg>