<?xml version="1.0" encoding="iso-8859-1"?>
<!-- Generator: Adobe Illustrator 19.0.0, SVG Export Plug-In . SVG Version: 6.00 Build 0)  -->
<svg version="1.1" id="Capa_1" xmlns="http://www.w3.org/2000/svg" xmlns:xlink="http://www.w3.org/1999/xlink" x="0px" y="0px"
	 viewBox="0 0 511.999 511.999" style="enable-background:new 0 0 511.999 511.999;" xml:space="preserve">
<path style="fill:#959CB5;" d="M256,232L256,232c-8.837,0-16-7.163-16-16v-8c0-8.837,7.163-16,16-16l0,0c8.837,0,16,7.163,16,16v8
	C272,224.837,264.837,232,256,232z"/>
<g>
	<path style="fill:#D5DCED;" d="M88,424H48c-4.418,0-8-3.582-8-8v-16c0-4.418,3.582-8,8-8h40c4.418,0,8,3.582,8,8v16
		C96,420.418,92.418,424,88,424z"/>
	<path style="fill:#D5DCED;" d="M464,424h-40c-4.418,0-8-3.582-8-8v-16c0-4.418,3.582-8,8-8h40c4.418,0,8,3.582,8,8v16
		C472,420.418,468.418,424,464,424z"/>
</g>
<g>
	<path style="fill:#C7CFE2;" d="M64,424H48c-4.418,0-8-3.582-8-8v-16c0-4.418,3.582-8,8-8h16V424z"/>
	<path style="fill:#C7CFE2;" d="M440,424h-16c-4.418,0-8-3.582-8-8v-16c0-4.418,3.582-8,8-8h16V424z"/>
</g>
<path d="M500.765,357.14L278.932,221.178c0.388-1.692,0.6-3.451,0.6-5.259v-8.016c0-10.354-6.724-19.16-16.032-22.3v-4.143
	c0-10.435-6.782-19.479-16.876-22.506c-13.661-4.097-23.203-16.931-23.204-31.211c0-8.477,3.451-16.597,9.719-22.864
	c6.267-6.268,14.385-9.719,22.862-9.719c0,0,0.002,0,0.003,0c17.963,0.002,32.578,14.617,32.578,32.581c0,4.143,3.358,7.5,7.5,7.5
	s7.5-3.357,7.5-7.5c0-26.234-21.343-47.579-47.577-47.581c-0.001,0-0.002,0-0.004,0c-12.482,0-24.369,5.012-33.469,14.111
	c-9.101,9.102-14.113,20.989-14.112,33.474c0.001,20.851,13.94,39.593,33.895,45.576c3.7,1.11,6.186,4.381,6.186,8.139v4.143
	c-9.308,3.139-16.032,11.946-16.032,22.3v8.016c0,1.808,0.212,3.567,0.6,5.26L11.235,357.14C4.305,361.388,0,369.075,0,377.203
	v15.071c0,8.556,6.96,15.516,15.516,15.516h16.548v8.532c0,8.556,6.96,15.517,15.516,15.517h40.081
	c8.556,0,15.516-6.961,15.516-15.517v-8.532h257.032c4.142,0,7.5-3.357,7.5-7.5s-3.358-7.5-7.5-7.5H101.235
	c-2.649-4.774-7.738-8.016-13.574-8.016h-40.08c-5.836,0-10.925,3.241-13.574,8.016H15.516c-0.285,0-0.516-0.231-0.516-0.516
	v-15.071c0-2.947,1.561-5.734,4.074-7.274l221.841-135.966c4.088,3.423,9.349,5.489,15.085,5.489s10.998-2.066,15.086-5.489
	L492.927,369.93c2.513,1.54,4.074,4.327,4.074,7.274v15.071c0,0.284-0.231,0.516-0.516,0.516h-18.491
	c-2.649-4.774-7.738-8.016-13.574-8.016h-40.081c-5.836,0-10.925,3.241-13.574,8.016h-18.494c-4.142,0-7.5,3.357-7.5,7.5
	s3.358,7.5,7.5,7.5h16.551v8.532c0,8.556,6.96,15.517,15.516,15.517h40.081c8.556,0,15.516-6.961,15.516-15.517v-8.532h16.548
	c8.556,0,15.516-6.96,15.516-15.516v-15.071C512,369.075,507.695,361.388,500.765,357.14z M47.064,400.29
	c0-0.284,0.231-0.516,0.516-0.516h40.081c0.283,0,0.513,0.229,0.515,0.512v0.004c0,0.007,0.001,0.013,0.001,0.019v16.013
	c0,0.285-0.231,0.517-0.516,0.517h-40.08c-0.285,0-0.516-0.231-0.516-0.517V400.29H47.064z M264.532,215.919
	c0,4.705-3.828,8.532-8.532,8.532s-8.532-3.827-8.532-8.532v-8.016c0-4.705,3.828-8.532,8.532-8.532
	c4.704,0,8.532,3.827,8.532,8.532V215.919z M464.419,416.839h-40.081c-0.285,0-0.516-0.231-0.516-0.517V400.29
	c0-0.284,0.231-0.516,0.516-0.516h40.081c0.281,0,0.509,0.227,0.514,0.506v0.01c0,0.016,0.002,0.032,0.002,0.048v15.984
	C464.936,416.607,464.704,416.839,464.419,416.839z"/>
<g>
</g>
<g>
</g>
<g>
</g>
<g>
</g>
<g>
</g>
<g>
</g>
<g>
</g>
<g>
</g>
<g>
</g>
<g>
</g>
<g>
</g>
<g>
</g>
<g>
</g>
<g>
</g>
<g>
</g>
</svg>
